<svg width="101" height="64" viewBox="0 0 101 64" fill="none" xmlns="http://www.w3.org/2000/svg">
<g clip-path="url(#clip0_0_709)">
<g filter="url(#filter0_i_0_709)">
<rect width="101" height="64" rx="10" fill="#EAE3DC"/>
</g>
<path d="M40.0045 29.82C40.0045 27.5267 40.2912 25.5267 40.8645 23.82C41.4512 22.1 42.2445 20.6733 43.2445 19.54C44.2579 18.3933 45.4045 17.54 46.6845 16.98C47.9779 16.4067 49.3312 16.12 50.7445 16.12C52.1579 16.12 53.5045 16.4067 54.7845 16.98C56.0779 17.54 57.2245 18.3933 58.2245 19.54C59.2245 20.6733 60.0112 22.1 60.5845 23.82C61.1579 25.5267 61.4445 27.5267 61.4445 29.82C61.4445 32.26 61.1579 34.3467 60.5845 36.08C60.0112 37.8133 59.2245 39.2267 58.2245 40.32C57.2245 41.4 56.0779 42.2 54.7845 42.72C53.5045 43.2267 52.1579 43.48 50.7445 43.48C49.3312 43.48 47.9779 43.2267 46.6845 42.72C45.4045 42.2 44.2579 41.4 43.2445 40.32C42.2445 39.2267 41.4512 37.8133 40.8645 36.08C40.2912 34.3467 40.0045 32.26 40.0045 29.82ZM46.0045 29.82C46.0045 31.7267 46.1979 33.3 46.5845 34.54C46.9712 35.78 47.5179 36.7067 48.2245 37.32C48.9312 37.92 49.7712 38.22 50.7445 38.22C51.7179 38.22 52.5512 37.92 53.2445 37.32C53.9512 36.7067 54.4912 35.78 54.8645 34.54C55.2512 33.2867 55.4445 31.7133 55.4445 29.82C55.4445 28.0333 55.2512 26.5133 54.8645 25.26C54.4912 24.0067 53.9512 23.0467 53.2445 22.38C52.5512 21.7133 51.7179 21.38 50.7445 21.38C49.7712 21.38 48.9312 21.7133 48.2245 22.38C47.5179 23.0467 46.9712 24.0067 46.5845 25.26C46.1979 26.5133 46.0045 28.0333 46.0045 29.82Z" fill="#434A59"/>
</g>
<defs>
<filter id="filter0_i_0_709" x="0" y="0" width="101" height="64" filterUnits="userSpaceOnUse" color-interpolation-filters="sRGB">
<feFlood flood-opacity="0" result="BackgroundImageFix"/>
<feBlend mode="normal" in="SourceGraphic" in2="BackgroundImageFix" result="shape"/>
<feColorMatrix in="SourceAlpha" type="matrix" values="0 0 0 0 0 0 0 0 0 0 0 0 0 0 0 0 0 0 127 0" result="hardAlpha"/>
<feOffset dy="-4"/>
<feComposite in2="hardAlpha" operator="arithmetic" k2="-1" k3="1"/>
<feColorMatrix type="matrix" values="0 0 0 0 0.702055 0 0 0 0 0.641941 0 0 0 0 0.593849 0 0 0 1 0"/>
<feBlend mode="normal" in2="shape" result="effect1_innerShadow_0_709"/>
</filter>
<clipPath id="clip0_0_709">
<rect width="101" height="64" fill="white"/>
</clipPath>
</defs>
</svg>
