<svg width="101" height="64" viewBox="0 0 101 64" fill="none" xmlns="http://www.w3.org/2000/svg">
<g clip-path="url(#clip0_0_706)">
<g filter="url(#filter0_i_0_706)">
<rect width="101" height="64" rx="10" fill="#EAE3DC"/>
</g>
<path d="M50.7933 21.2C49.9133 21.2 49.1333 21.4133 48.4533 21.84C47.7866 22.2533 47.2199 22.74 46.7533 23.3C46.2999 23.86 45.9533 24.3733 45.7133 24.84C45.4733 25.2933 45.3399 25.56 45.3133 25.64L40.1933 23.3C40.2199 23.1267 40.3466 22.78 40.5733 22.26C40.7999 21.7267 41.1599 21.1133 41.6533 20.42C42.1466 19.7267 42.7933 19.0533 43.5933 18.4C44.4066 17.7467 45.4066 17.2067 46.5933 16.78C47.7799 16.34 49.1799 16.12 50.7933 16.12C52.6599 16.12 54.2066 16.3867 55.4333 16.92C56.6733 17.4533 57.6466 18.1533 58.3533 19.02C59.0733 19.8733 59.5866 20.8 59.8933 21.8C60.1999 22.8 60.3533 23.76 60.3533 24.68C60.3533 25.8267 60.1199 26.94 59.6533 28.02C59.1999 29.0867 58.6066 30.1 57.8733 31.06C57.1399 32.0067 56.3533 32.88 55.5133 33.68C54.6733 34.4667 53.8666 35.16 53.0933 35.76C52.3333 36.3467 51.6866 36.8133 51.1533 37.16C50.6199 37.5067 50.2999 37.72 50.1933 37.8H60.1333V43H41.1933V38.26C41.3933 38.1133 41.8466 37.7867 42.5533 37.28C43.2599 36.7733 44.1066 36.14 45.0933 35.38C46.0933 34.62 47.1266 33.7867 48.1933 32.88C49.2733 31.96 50.2733 31.0133 51.1933 30.04C52.1266 29.0667 52.8866 28.1133 53.4733 27.18C54.0599 26.2467 54.3533 25.3867 54.3533 24.6C54.3533 23.36 54.0399 22.4867 53.4133 21.98C52.7999 21.46 51.9266 21.2 50.7933 21.2Z" fill="#434A59"/>
</g>
<defs>
<filter id="filter0_i_0_706" x="0" y="0" width="101" height="64" filterUnits="userSpaceOnUse" color-interpolation-filters="sRGB">
<feFlood flood-opacity="0" result="BackgroundImageFix"/>
<feBlend mode="normal" in="SourceGraphic" in2="BackgroundImageFix" result="shape"/>
<feColorMatrix in="SourceAlpha" type="matrix" values="0 0 0 0 0 0 0 0 0 0 0 0 0 0 0 0 0 0 127 0" result="hardAlpha"/>
<feOffset dy="-4"/>
<feComposite in2="hardAlpha" operator="arithmetic" k2="-1" k3="1"/>
<feColorMatrix type="matrix" values="0 0 0 0 0.702055 0 0 0 0 0.641941 0 0 0 0 0.593849 0 0 0 1 0"/>
<feBlend mode="normal" in2="shape" result="effect1_innerShadow_0_706"/>
</filter>
<clipPath id="clip0_0_706">
<rect width="101" height="64" fill="white"/>
</clipPath>
</defs>
</svg>
