<svg width="101" height="64" viewBox="0 0 101 64" fill="none" xmlns="http://www.w3.org/2000/svg">
<g clip-path="url(#clip0_0_703)">
<g filter="url(#filter0_i_0_703)">
<rect width="101" height="64" rx="10" fill="#EAE3DC"/>
</g>
<path d="M41.5783 21.88C41.7249 21.3467 42.0116 20.7467 42.4383 20.08C42.8649 19.4133 43.4449 18.78 44.1783 18.18C44.9249 17.58 45.8316 17.0867 46.8983 16.7C47.9783 16.3133 49.2249 16.12 50.6383 16.12C52.3183 16.12 53.8049 16.4333 55.0983 17.06C56.4049 17.6733 57.4316 18.5333 58.1783 19.64C58.9249 20.7467 59.2983 22.04 59.2983 23.52C59.2983 24.4133 59.1383 25.2333 58.8183 25.98C58.4983 26.7133 58.0849 27.3267 57.5783 27.82C57.0716 28.3133 56.5383 28.6333 55.9783 28.78C56.6316 28.86 57.2849 29.16 57.9383 29.68C58.6049 30.2 59.1649 30.8933 59.6183 31.76C60.0849 32.6267 60.3183 33.6467 60.3183 34.82C60.3183 36.5 59.8916 37.9933 59.0383 39.3C58.1983 40.5933 57.0449 41.6133 55.5783 42.36C54.1116 43.1067 52.4316 43.48 50.5383 43.48C48.5783 43.48 46.9116 43.1333 45.5383 42.44C44.1783 41.7467 43.0916 40.9 42.2783 39.9C41.4783 38.9 40.9449 37.9333 40.6783 37L46.1583 34.28C46.3183 34.8533 46.5849 35.4533 46.9583 36.08C47.3449 36.7067 47.8383 37.24 48.4383 37.68C49.0383 38.1067 49.7316 38.32 50.5183 38.32C51.3316 38.32 52.0249 38.16 52.5983 37.84C53.1716 37.52 53.6116 37.0867 53.9183 36.54C54.2383 35.98 54.3983 35.34 54.3983 34.62C54.3983 33.8733 54.2183 33.2533 53.8583 32.76C53.5116 32.2667 53.0449 31.9 52.4583 31.66C51.8716 31.42 51.2249 31.3 50.5183 31.3H49.9983V27.02H50.6783C51.2916 27.02 51.8449 26.9 52.3383 26.66C52.8316 26.4067 53.2183 26.0533 53.4983 25.6C53.7916 25.1333 53.9383 24.5867 53.9383 23.96C53.9383 23.12 53.6516 22.4067 53.0783 21.82C52.5049 21.22 51.6716 20.92 50.5783 20.92C49.9116 20.92 49.3249 21.04 48.8183 21.28C48.3249 21.5067 47.9116 21.8 47.5783 22.16C47.2449 22.5067 46.9783 22.8667 46.7783 23.24C46.5916 23.6 46.4716 23.9133 46.4183 24.18L41.5783 21.88Z" fill="#434A59"/>
</g>
<defs>
<filter id="filter0_i_0_703" x="0" y="0" width="101" height="64" filterUnits="userSpaceOnUse" color-interpolation-filters="sRGB">
<feFlood flood-opacity="0" result="BackgroundImageFix"/>
<feBlend mode="normal" in="SourceGraphic" in2="BackgroundImageFix" result="shape"/>
<feColorMatrix in="SourceAlpha" type="matrix" values="0 0 0 0 0 0 0 0 0 0 0 0 0 0 0 0 0 0 127 0" result="hardAlpha"/>
<feOffset dy="-4"/>
<feComposite in2="hardAlpha" operator="arithmetic" k2="-1" k3="1"/>
<feColorMatrix type="matrix" values="0 0 0 0 0.702055 0 0 0 0 0.641941 0 0 0 0 0.593849 0 0 0 1 0"/>
<feBlend mode="normal" in2="shape" result="effect1_innerShadow_0_703"/>
</filter>
<clipPath id="clip0_0_703">
<rect width="101" height="64" fill="white"/>
</clipPath>
</defs>
</svg>
