<svg width="101" height="64" viewBox="0 0 101 64" fill="none" xmlns="http://www.w3.org/2000/svg">
<g clip-path="url(#clip0_0_697)">
<g filter="url(#filter0_i_0_697)">
<rect width="101" height="64" rx="10" fill="#EAE3DC"/>
</g>
<path d="M46.1592 35.56C46.2792 35.9333 46.4459 36.2933 46.6592 36.64C46.8726 36.9867 47.1392 37.3 47.4592 37.58C47.7792 37.86 48.1659 38.08 48.6192 38.24C49.0726 38.4 49.6059 38.48 50.2192 38.48C51.4592 38.48 52.4192 38.0867 53.0992 37.3C53.7926 36.5 54.1326 35.4667 54.1192 34.2C54.1059 32.9867 53.7726 32.0333 53.1192 31.34C52.4792 30.6467 51.5992 30.3 50.4792 30.3C49.7592 30.3 49.1392 30.4267 48.6192 30.68C48.0992 30.9333 47.6726 31.2267 47.3392 31.56C47.0192 31.8933 46.7926 32.2 46.6592 32.48L41.7192 30.68L44.0592 16.6H58.8992V21.8H49.0792L48.2592 26.78C48.3259 26.6867 48.5326 26.54 48.8792 26.34C49.2392 26.14 49.7059 25.96 50.2792 25.8C50.8659 25.6267 51.5259 25.54 52.2592 25.54C53.5659 25.54 54.8192 25.8267 56.0192 26.4C57.2192 26.9733 58.2059 27.8733 58.9792 29.1C59.7526 30.3267 60.1392 31.9133 60.1392 33.86C60.1392 35.8067 59.7192 37.5067 58.8792 38.96C58.0526 40.4 56.9126 41.5133 55.4592 42.3C54.0059 43.0867 52.3392 43.48 50.4592 43.48C49.0326 43.48 47.7792 43.3133 46.6992 42.98C45.6326 42.6333 44.7192 42.18 43.9592 41.62C43.1992 41.06 42.5792 40.4533 42.0992 39.8C41.6326 39.1333 41.2792 38.48 41.0392 37.84L46.1592 35.56Z" fill="#434A59"/>
</g>
<defs>
<filter id="filter0_i_0_697" x="0" y="0" width="101" height="64" filterUnits="userSpaceOnUse" color-interpolation-filters="sRGB">
<feFlood flood-opacity="0" result="BackgroundImageFix"/>
<feBlend mode="normal" in="SourceGraphic" in2="BackgroundImageFix" result="shape"/>
<feColorMatrix in="SourceAlpha" type="matrix" values="0 0 0 0 0 0 0 0 0 0 0 0 0 0 0 0 0 0 127 0" result="hardAlpha"/>
<feOffset dy="-4"/>
<feComposite in2="hardAlpha" operator="arithmetic" k2="-1" k3="1"/>
<feColorMatrix type="matrix" values="0 0 0 0 0.702055 0 0 0 0 0.641941 0 0 0 0 0.593849 0 0 0 1 0"/>
<feBlend mode="normal" in2="shape" result="effect1_innerShadow_0_697"/>
</filter>
<clipPath id="clip0_0_697">
<rect width="101" height="64" fill="white"/>
</clipPath>
</defs>
</svg>
