<svg width="101" height="64" viewBox="0 0 101 64" fill="none" xmlns="http://www.w3.org/2000/svg">
<g clip-path="url(#clip0_0_688)">
<g filter="url(#filter0_i_0_688)">
<rect width="101" height="64" rx="10" fill="#EAE3DC"/>
</g>
<path d="M50.7691 43.48C49.0357 43.48 47.4357 43.1467 45.9691 42.48C44.5024 41.8133 43.3224 40.8933 42.4291 39.72C41.5357 38.5333 41.0891 37.18 41.0891 35.66C41.0891 34.4333 41.2891 33.38 41.6891 32.5C42.1024 31.62 42.6624 30.88 43.3691 30.28C44.0891 29.6667 44.8824 29.16 45.7491 28.76C45.0957 28.3867 44.4957 27.9533 43.9491 27.46C43.4157 26.9533 42.9891 26.3467 42.6691 25.64C42.3624 24.9333 42.2091 24.0667 42.2091 23.04C42.2091 21.6267 42.5957 20.4067 43.3691 19.38C44.1424 18.34 45.1691 17.54 46.4491 16.98C47.7424 16.4067 49.1691 16.12 50.7291 16.12C52.3157 16.12 53.7424 16.4067 55.0091 16.98C56.2891 17.54 57.2957 18.34 58.0291 19.38C58.7757 20.4067 59.1491 21.6267 59.1491 23.04C59.1491 24.56 58.8224 25.7533 58.1691 26.62C57.5157 27.4733 56.6957 28.1867 55.7091 28.76C56.5891 29.16 57.3757 29.6667 58.0691 30.28C58.7757 30.88 59.3357 31.62 59.7491 32.5C60.1757 33.38 60.3891 34.4333 60.3891 35.66C60.3891 37.18 59.9424 38.5333 59.0491 39.72C58.1691 40.8933 56.9957 41.8133 55.5291 42.48C54.0757 43.1467 52.4891 43.48 50.7691 43.48ZM50.7291 38.28C51.3691 38.28 51.9424 38.1267 52.4491 37.82C52.9691 37.5133 53.3824 37.1067 53.6891 36.6C54.0091 36.08 54.1691 35.5067 54.1691 34.88C54.1691 34.2533 54.0091 33.68 53.6891 33.16C53.3824 32.64 52.9691 32.2333 52.4491 31.94C51.9424 31.6333 51.3691 31.48 50.7291 31.48C50.0891 31.48 49.5091 31.6333 48.9891 31.94C48.4824 32.2467 48.0691 32.66 47.7491 33.18C47.4424 33.6867 47.2891 34.2533 47.2891 34.88C47.2891 35.5067 47.4424 36.08 47.7491 36.6C48.0691 37.1067 48.4824 37.5133 48.9891 37.82C49.5091 38.1267 50.0891 38.28 50.7291 38.28ZM50.7491 26.88C51.3091 26.88 51.8157 26.7467 52.2691 26.48C52.7357 26.2 53.1091 25.8267 53.3891 25.36C53.6691 24.88 53.8091 24.36 53.8091 23.8C53.8091 23.24 53.6691 22.7333 53.3891 22.28C53.1091 21.8133 52.7357 21.44 52.2691 21.16C51.8157 20.88 51.3091 20.74 50.7491 20.74C50.1891 20.74 49.6757 20.88 49.2091 21.16C48.7424 21.44 48.3691 21.8133 48.0891 22.28C47.8091 22.7333 47.6691 23.24 47.6691 23.8C47.6691 24.36 47.8091 24.8733 48.0891 25.34C48.3691 25.8067 48.7424 26.18 49.2091 26.46C49.6757 26.74 50.1891 26.88 50.7491 26.88Z" fill="#434A59"/>
</g>
<defs>
<filter id="filter0_i_0_688" x="0" y="0" width="101" height="64" filterUnits="userSpaceOnUse" color-interpolation-filters="sRGB">
<feFlood flood-opacity="0" result="BackgroundImageFix"/>
<feBlend mode="normal" in="SourceGraphic" in2="BackgroundImageFix" result="shape"/>
<feColorMatrix in="SourceAlpha" type="matrix" values="0 0 0 0 0 0 0 0 0 0 0 0 0 0 0 0 0 0 127 0" result="hardAlpha"/>
<feOffset dy="-4"/>
<feComposite in2="hardAlpha" operator="arithmetic" k2="-1" k3="1"/>
<feColorMatrix type="matrix" values="0 0 0 0 0.702055 0 0 0 0 0.641941 0 0 0 0 0.593849 0 0 0 1 0"/>
<feBlend mode="normal" in2="shape" result="effect1_innerShadow_0_688"/>
</filter>
<clipPath id="clip0_0_688">
<rect width="101" height="64" fill="white"/>
</clipPath>
</defs>
</svg>
