<svg width="101" height="64" viewBox="0 0 101 64" fill="none" xmlns="http://www.w3.org/2000/svg">
<g clip-path="url(#clip0_0_685)">
<g filter="url(#filter0_i_0_685)">
<rect width="101" height="64" rx="10" fill="#EAE3DC"/>
</g>
<path d="M43.31 43L51.45 33.48C51.29 33.64 51.01 33.8 50.61 33.96C50.21 34.1067 49.6833 34.18 49.03 34.18C47.6567 34.18 46.33 33.8267 45.05 33.12C43.7833 32.4133 42.7367 31.4067 41.91 30.1C41.0967 28.78 40.69 27.2067 40.69 25.38C40.69 23.58 41.13 21.9867 42.01 20.6C42.9033 19.2133 44.09 18.12 45.57 17.32C47.05 16.52 48.69 16.12 50.49 16.12C52.33 16.12 53.99 16.5 55.47 17.26C56.95 18.0067 58.13 19.0933 59.01 20.52C59.9033 21.9333 60.35 23.6267 60.35 25.6C60.35 27.7733 59.9967 29.6067 59.29 31.1C58.5833 32.58 57.7767 33.8667 56.87 34.96L50.31 43H43.31ZM50.51 29.4C51.2967 29.4 52.0033 29.2133 52.63 28.84C53.27 28.4667 53.7767 27.96 54.15 27.32C54.5367 26.68 54.73 25.9733 54.73 25.2C54.73 24.4267 54.5367 23.72 54.15 23.08C53.7767 22.44 53.27 21.9333 52.63 21.56C51.99 21.1867 51.2833 21 50.51 21C49.7367 21 49.03 21.1933 48.39 21.58C47.7633 21.9533 47.2567 22.46 46.87 23.1C46.4967 23.7267 46.31 24.4267 46.31 25.2C46.31 25.9733 46.4967 26.68 46.87 27.32C47.2567 27.96 47.77 28.4667 48.41 28.84C49.05 29.2133 49.75 29.4 50.51 29.4Z" fill="#434A59"/>
</g>
<defs>
<filter id="filter0_i_0_685" x="0" y="0" width="101" height="64" filterUnits="userSpaceOnUse" color-interpolation-filters="sRGB">
<feFlood flood-opacity="0" result="BackgroundImageFix"/>
<feBlend mode="normal" in="SourceGraphic" in2="BackgroundImageFix" result="shape"/>
<feColorMatrix in="SourceAlpha" type="matrix" values="0 0 0 0 0 0 0 0 0 0 0 0 0 0 0 0 0 0 127 0" result="hardAlpha"/>
<feOffset dy="-4"/>
<feComposite in2="hardAlpha" operator="arithmetic" k2="-1" k3="1"/>
<feColorMatrix type="matrix" values="0 0 0 0 0.702055 0 0 0 0 0.641941 0 0 0 0 0.593849 0 0 0 1 0"/>
<feBlend mode="normal" in2="shape" result="effect1_innerShadow_0_685"/>
</filter>
<clipPath id="clip0_0_685">
<rect width="101" height="64" fill="white"/>
</clipPath>
</defs>
</svg>
