<svg width="101" height="64" viewBox="0 0 101 64" fill="none" xmlns="http://www.w3.org/2000/svg">
<g clip-path="url(#clip0_0_661)">
<g filter="url(#filter0_i_0_661)">
<rect width="101" height="64" rx="10" fill="#647198"/>
</g>
<path d="M29.9207 21.52H35.4787C37.448 21.52 39.0767 21.9167 40.3647 22.71C41.662 23.494 42.6327 24.5813 43.2767 25.972C43.9207 27.3627 44.2427 28.954 44.2427 30.746C44.2427 32.5473 43.9207 34.1433 43.2767 35.534C42.6327 36.9247 41.662 38.0167 40.3647 38.81C39.0767 39.6033 37.448 40 35.4787 40H29.9207V21.52ZM34.0927 25.23V36.29H35.1007C36.1553 36.29 37.028 36.052 37.7187 35.576C38.4093 35.0907 38.9273 34.4327 39.2727 33.602C39.6273 32.762 39.8047 31.8193 39.8047 30.774C39.8047 29.7193 39.632 28.7767 39.2867 27.946C38.9507 27.106 38.4327 26.4433 37.7327 25.958C37.0327 25.4727 36.1553 25.23 35.1007 25.23H34.0927ZM46.2284 21.52H58.0304V25.188H50.4004V28.954H57.9604V32.51H50.4004V36.332H58.0304V40H46.2284V21.52ZM60.8308 21.52H65.0168V36.332H71.7228V40H60.8308V21.52Z" fill="white"/>
</g>
<defs>
<filter id="filter0_i_0_661" x="0" y="0" width="101" height="64" filterUnits="userSpaceOnUse" color-interpolation-filters="sRGB">
<feFlood flood-opacity="0" result="BackgroundImageFix"/>
<feBlend mode="normal" in="SourceGraphic" in2="BackgroundImageFix" result="shape"/>
<feColorMatrix in="SourceAlpha" type="matrix" values="0 0 0 0 0 0 0 0 0 0 0 0 0 0 0 0 0 0 127 0" result="hardAlpha"/>
<feOffset dy="-4"/>
<feComposite in2="hardAlpha" operator="arithmetic" k2="-1" k3="1"/>
<feColorMatrix type="matrix" values="0 0 0 0 0.256378 0 0 0 0 0.305244 0 0 0 0 0.451843 0 0 0 1 0"/>
<feBlend mode="normal" in2="shape" result="effect1_innerShadow_0_661"/>
</filter>
<clipPath id="clip0_0_661">
<rect width="101" height="64" fill="white"/>
</clipPath>
</defs>
</svg>
