<svg width="101" height="64" viewBox="0 0 101 64" fill="none" xmlns="http://www.w3.org/2000/svg">
<g clip-path="url(#clip0_0_676)">
<g filter="url(#filter0_i_0_676)">
<rect width="101" height="64" rx="10" fill="#EAE3DC"/>
</g>
<path d="M50.6858 43.48C49.6991 43.48 48.8458 43.1267 48.1258 42.42C47.4191 41.7 47.0658 40.8467 47.0658 39.86C47.0658 38.8467 47.4191 37.9867 48.1258 37.28C48.8458 36.56 49.6991 36.2 50.6858 36.2C51.6991 36.2 52.5591 36.56 53.2658 37.28C53.9724 37.9867 54.3258 38.8467 54.3258 39.86C54.3258 40.8467 53.9724 41.7 53.2658 42.42C52.5591 43.1267 51.6991 43.48 50.6858 43.48Z" fill="#434A59"/>
</g>
<defs>
<filter id="filter0_i_0_676" x="0" y="0" width="101" height="64" filterUnits="userSpaceOnUse" color-interpolation-filters="sRGB">
<feFlood flood-opacity="0" result="BackgroundImageFix"/>
<feBlend mode="normal" in="SourceGraphic" in2="BackgroundImageFix" result="shape"/>
<feColorMatrix in="SourceAlpha" type="matrix" values="0 0 0 0 0 0 0 0 0 0 0 0 0 0 0 0 0 0 127 0" result="hardAlpha"/>
<feOffset dy="-4"/>
<feComposite in2="hardAlpha" operator="arithmetic" k2="-1" k3="1"/>
<feColorMatrix type="matrix" values="0 0 0 0 0.702055 0 0 0 0 0.641941 0 0 0 0 0.593849 0 0 0 1 0"/>
<feBlend mode="normal" in2="shape" result="effect1_innerShadow_0_676"/>
</filter>
<clipPath id="clip0_0_676">
<rect width="101" height="64" fill="white"/>
</clipPath>
</defs>
</svg>
