<svg width="227" height="64" viewBox="0 0 227 64" fill="none" xmlns="http://www.w3.org/2000/svg">
<g clip-path="url(#clip0_0_664)">
<g filter="url(#filter0_i_0_664)">
<rect width="227" height="64" rx="10" fill="#647198"/>
</g>
<path d="M78.7984 21.52H86.3304C87.4038 21.52 88.3604 21.744 89.2004 22.192C90.0404 22.64 90.7031 23.2887 91.1884 24.138C91.6831 24.978 91.9304 25.9813 91.9304 27.148C91.9304 28.3147 91.7204 29.2713 91.3004 30.018C90.8898 30.7553 90.3951 31.3107 89.8164 31.684C89.2378 32.048 88.7011 32.2673 88.2064 32.342L92.7004 40H87.9964L83.9924 32.664H82.9844V40H78.7984V21.52ZM82.9844 29.766H84.8324C85.5791 29.766 86.2324 29.584 86.7924 29.22C87.3524 28.856 87.6324 28.212 87.6324 27.288C87.6324 26.364 87.3571 25.7247 86.8064 25.37C86.2558 25.006 85.6071 24.824 84.8604 24.824H82.9844V29.766ZM94.9861 21.52H106.788V25.188H99.1581V28.954H106.718V32.51H99.1581V36.332H106.788V40H94.9861V21.52ZM116.21 21.184C117.358 21.184 118.362 21.31 119.22 21.562C120.079 21.814 120.77 22.08 121.292 22.36C121.815 22.64 122.132 22.8267 122.244 22.92L120.228 26.294C120.079 26.182 119.822 26.0187 119.458 25.804C119.104 25.5893 118.679 25.398 118.184 25.23C117.699 25.062 117.19 24.978 116.658 24.978C115.94 24.978 115.356 25.1087 114.908 25.37C114.47 25.622 114.25 26 114.25 26.504C114.25 26.8493 114.367 27.162 114.6 27.442C114.843 27.7127 115.207 27.974 115.692 28.226C116.187 28.4687 116.812 28.7347 117.568 29.024C118.259 29.276 118.908 29.5747 119.514 29.92C120.121 30.2653 120.653 30.676 121.11 31.152C121.577 31.6187 121.946 32.16 122.216 32.776C122.487 33.392 122.622 34.092 122.622 34.876C122.622 35.8093 122.431 36.6213 122.048 37.312C121.666 37.9933 121.143 38.558 120.48 39.006C119.827 39.454 119.08 39.7853 118.24 40C117.41 40.224 116.546 40.336 115.65 40.336C114.381 40.336 113.242 40.1913 112.234 39.902C111.236 39.6127 110.428 39.3 109.812 38.964C109.196 38.628 108.828 38.404 108.706 38.292L110.792 34.778C110.904 34.862 111.119 34.9973 111.436 35.184C111.763 35.3707 112.16 35.5667 112.626 35.772C113.093 35.968 113.588 36.136 114.11 36.276C114.642 36.416 115.165 36.486 115.678 36.486C116.537 36.486 117.181 36.3227 117.61 35.996C118.04 35.66 118.254 35.2213 118.254 34.68C118.254 34.2787 118.119 33.9193 117.848 33.602C117.578 33.2847 117.172 32.986 116.63 32.706C116.089 32.4167 115.412 32.1133 114.6 31.796C113.788 31.4693 113.028 31.0727 112.318 30.606C111.618 30.1393 111.049 29.556 110.61 28.856C110.172 28.156 109.952 27.288 109.952 26.252C109.952 25.216 110.242 24.32 110.82 23.564C111.408 22.7987 112.178 22.2107 113.13 21.8C114.092 21.3893 115.118 21.184 116.21 21.184ZM124.678 21.52H136.48V25.188H128.85V28.954H136.41V32.51H128.85V36.332H136.48V40H124.678V21.52ZM142.612 25.188H138.202V21.52H151.194V25.188H146.798V40H142.612V25.188Z" fill="white"/>
</g>
<defs>
<filter id="filter0_i_0_664" x="0" y="0" width="227" height="64" filterUnits="userSpaceOnUse" color-interpolation-filters="sRGB">
<feFlood flood-opacity="0" result="BackgroundImageFix"/>
<feBlend mode="normal" in="SourceGraphic" in2="BackgroundImageFix" result="shape"/>
<feColorMatrix in="SourceAlpha" type="matrix" values="0 0 0 0 0 0 0 0 0 0 0 0 0 0 0 0 0 0 127 0" result="hardAlpha"/>
<feOffset dy="-4"/>
<feComposite in2="hardAlpha" operator="arithmetic" k2="-1" k3="1"/>
<feColorMatrix type="matrix" values="0 0 0 0 0.256378 0 0 0 0 0.305244 0 0 0 0 0.451843 0 0 0 1 0"/>
<feBlend mode="normal" in2="shape" result="effect1_innerShadow_0_664"/>
</filter>
<clipPath id="clip0_0_664">
<rect width="227" height="64" fill="white"/>
</clipPath>
</defs>
</svg>
